<svg aria-hidden="true" style="position: absolute; width: 0; height: 0; overflow: hidden;" version="1.1" xmlns="http://www.w3.org/2000/svg" xmlns:xlink="http://www.w3.org/1999/xlink">
<defs>
<symbol id="icon-code" viewBox="0 0 32 32">
<path d="M0 19.256l10.042 6.457v-4.661l-5.979-3.692 5.979-3.692v-4.693l-10.042 6.49v3.791zM12.166 28h3.456l5.064-24h-3.479l-5.041 24zM21.959 8.975v4.693l5.977 3.692-5.977 3.691v4.661l10.041-6.456v-3.791l-10.041-6.49z"></path>
</symbol>
<symbol id="icon-pencil" viewBox="0 0 32 32">
<path d="M30.173 7.542l-0.314 0.314-5.726-5.729 0.313-0.313c0 0 1.371-1.813 3.321-1.813 0.859 0 1.832 0.353 2.849 1.37 3.354 3.354-0.443 6.171-0.443 6.171zM27.979 9.737l-19.499 19.506-8.48 2.757 2.756-8.485v-0.003h0.002l19.496-19.505 0.252 0.253zM2.76 29.239l4.237-1.219-2.894-3.082-1.343 4.301z"></path>
</symbol>
<symbol id="icon-list2" viewBox="0 0 32 32">
<path d="M12 2h20v4h-20v-4zM12 14h20v4h-20v-4zM12 26h20v4h-20v-4zM0 4c0-2.209 1.791-4 4-4s4 1.791 4 4c0 2.209-1.791 4-4 4s-4-1.791-4-4zM0 16c0-2.209 1.791-4 4-4s4 1.791 4 4c0 2.209-1.791 4-4 4s-4-1.791-4-4zM0 28c0-2.209 1.791-4 4-4s4 1.791 4 4c0 2.209-1.791 4-4 4s-4-1.791-4-4z"></path>
</symbol>
<symbol id="icon-menu" viewBox="0 0 20 20">
<path d="M0 3h20v2h-20v-2zM0 9h20v2h-20v-2zM0 15h20v2h-20v-2z"></path>
</symbol>
<symbol id="icon-cross" viewBox="0 0 20 20">
<path d="M14.348 14.849c-0.469 0.469-1.229 0.469-1.697 0l-2.651-3.030-2.651 3.029c-0.469 0.469-1.229 0.469-1.697 0-0.469-0.469-0.469-1.229 0-1.697l2.758-3.15-2.759-3.152c-0.469-0.469-0.469-1.228 0-1.697s1.228-0.469 1.697 0l2.652 3.031 2.651-3.031c0.469-0.469 1.228-0.469 1.697 0s0.469 1.229 0 1.697l-2.758 3.152 2.758 3.15c0.469 0.469 0.469 1.229 0 1.698z"></path>
</symbol>
</defs>
</svg>
